<?xml version="1.0" encoding="UTF-8" standalone="no"?><!DOCTYPE svg PUBLIC "-//W3C//DTD SVG 1.1//EN" "http://www.w3.org/Graphics/SVG/1.1/DTD/svg11.dtd"><svg width="100%" height="100%" viewBox="0 0 692 657" version="1.1" xmlns="http://www.w3.org/2000/svg" xmlns:xlink="http://www.w3.org/1999/xlink" xml:space="preserve" xmlns:serif="http://www.serif.com/" style="fill-rule:evenodd;clip-rule:evenodd;stroke-linejoin:round;stroke-miterlimit:2;"><path d="M406.971,656.547c-33.223,-62.592 -57.24,-131.434 -69.925,-205.071c-3.593,-20.865 -6.066,-41.675 -7.728,-62.372c-3.891,-48.531 -2.662,-96.504 3.475,-143.268c-57.776,21.773 -111.398,50.978 -159.918,86.217c-68.708,49.909 -127.207,111.942 -172.875,182.461c114.582,88.049 256.553,139.856 406.971,142.033Z" style="fill:#f55616;fill-rule:nonzero;"/><path d="M365.761,267.854c0.027,6.537 -0.405,13.431 -1.301,20.484c46.042,6.786 92.058,18.371 137.46,35.1c66.461,24.485 126.83,58.194 180.233,99.125c24.223,-147.173 -1.037,-294.889 -66.291,-422.563c-103.048,42.6 -195.558,110.152 -267.857,198.119c11.301,21.375 17.569,45.359 17.756,69.735Z" style="fill:#fc9500;fill-rule:nonzero;"/><path d="M329.318,389.104c16.691,-17.15 34.405,-33.597 53.216,-49.252c54.436,-45.299 113.818,-80.734 175.956,-106.495c-115.348,-94.565 -255.884,-146.562 -399.084,-153.886c-11.108,83.83 -6.744,169.564 13.469,252.582c48.52,-35.239 102.142,-64.444 159.918,-86.217c-6.137,46.764 -7.366,94.737 -3.475,143.268Z" style="fill:#fd7601;fill-rule:nonzero;"/></svg>